<?xml version="1.0" encoding="iso-8859-1"?>
<!-- Generator: Adobe Illustrator 19.0.0, SVG Export Plug-In . SVG Version: 6.00 Build 0)  -->
<svg version="1.1" id="Layer_1" xmlns="http://www.w3.org/2000/svg" xmlns:xlink="http://www.w3.org/1999/xlink" x="0px" y="0px"
	 viewBox="0 0 512 512" style="enable-background:new 0 0 512 512;" xml:space="preserve">
<g>
	<g>
		<g>
			<path d="M503.997,75.158H8.003C3.583,75.158,0,78.74,0,83.161v345.677c0,4.421,3.583,8.003,8.003,8.003h495.994
				c4.421,0,8.003-3.582,8.003-8.003V83.161C512,78.742,508.417,75.158,503.997,75.158z M495.994,420.837H16.006V91.164h479.988
				V420.837z"/>
			<path d="M192.232,193.908c0-28.615-23.281-51.898-51.899-51.898c-28.618,0-51.9,23.281-51.9,51.898
				c0,28.618,23.282,51.9,51.9,51.9C168.951,245.807,192.232,222.526,192.232,193.908z M140.333,229.801
				c-19.792,0-35.894-16.102-35.894-35.894c0-19.791,16.102-35.892,35.894-35.892c19.792,0,35.893,16.101,35.893,35.892
				C176.226,213.699,160.125,229.801,140.333,229.801z"/>
			<path d="M40.815,404.029h430.369c4.421,0,8.003-3.582,8.003-8.003V115.971c0-4.421-3.582-8.003-8.003-8.003H40.815
				c-4.42,0-8.003,3.582-8.003,8.003v280.054C32.812,400.446,36.396,404.029,40.815,404.029z M60.137,388.023l120.913-120.909
				l53.295,53.291c3.125,3.124,8.193,3.124,11.317,0l119.881-119.88l97.639,97.64v89.858H60.137z M48.818,123.974h414.363v151.553
				l-91.979-91.979c-3.125-3.123-8.192-3.125-11.318,0l-119.881,119.88l-53.295-53.291c-3.125-3.124-8.193-3.124-11.317,0
				L48.818,376.705V123.974z"/>
		</g>
	</g>
</g>
<g>
</g>
<g>
</g>
<g>
</g>
<g>
</g>
<g>
</g>
<g>
</g>
<g>
</g>
<g>
</g>
<g>
</g>
<g>
</g>
<g>
</g>
<g>
</g>
<g>
</g>
<g>
</g>
<g>
</g>
</svg>
