<?xml version="1.0" encoding="iso-8859-1"?>
<!-- Generator: Adobe Illustrator 19.0.0, SVG Export Plug-In . SVG Version: 6.00 Build 0)  -->
<svg version="1.1" id="Layer_1" xmlns="http://www.w3.org/2000/svg" xmlns:xlink="http://www.w3.org/1999/xlink" x="0px" y="0px"
	 viewBox="0 0 480 480" style="enable-background:new 0 0 480 480;" xml:space="preserve">
<g>
	<g>
		<g>
			<path d="M456,184c-4.424,0-8,3.576-8,8s3.576,8,8,8c4.416,0,8,3.584,8,8v248c0,4.416-3.584,8-8,8h-48.12L305.936,306.624
				l131.16-108.456c1.84-1.52,2.904-3.784,2.904-6.168V40c0-22.056-17.944-40-40-40H80C57.944,0,40,17.944,40,40v152
				c0,2.368,1.048,4.608,2.848,6.128l126.128,105.928L65.368,464H24c-4.416,0-8-3.584-8-8V208c0-4.416,3.584-8,8-8
				c4.424,0,8-3.576,8-8s-3.576-8-8-8c-13.232,0-24,10.768-24,24v248c0,13.232,10.768,24,24,24h432c13.232,0,24-10.768,24-24V208
				C480,194.768,469.232,184,456,184z M56,188.272V40c0-13.232,10.768-24,24-24h320c13.232,0,24,10.768,24,24v148.232
				L253.952,328.84c-8.92,7.384-21.84,7.328-30.72-0.12L56,188.272z M84.432,464l96.888-149.584l31.624,26.56
				c7.44,6.248,16.576,9.376,25.728,9.376c9.04,0,18.088-3.064,25.488-9.176l29.368-24.288L388.816,464H84.432z"/>
			<path d="M338.696,143.048c0-53.4-43.448-96.84-96.84-96.84c-53.392,0-96.84,43.448-96.84,96.84
				c0,53.392,43.448,96.84,96.84,96.84C295.248,239.888,338.696,196.448,338.696,143.048z M161.008,143.048
				c0-44.576,36.264-80.84,80.84-80.84s80.84,36.264,80.84,80.84s-36.264,80.84-80.84,80.84S161.008,187.624,161.008,143.048z"/>
			<path d="M251.912,88h-22.736C211.16,88,200,105.128,200,120.992v22.048c0,0.008,0,0.008,0,0.016v29.088
				C200,188.808,211.728,200,229.168,200H272c4.424,0,8-3.576,8-8s-3.576-8-8-8h-42.832c-6,0-13.168-2.056-13.168-11.856V151.04
				l35.24-0.032c16.864,0,30.632-13.208,31.056-29.6l0.056-0.304c0.088-0.472,0.128-0.944,0.128-1.424
				C282.48,102.512,268.48,88,251.912,88z M266.424,119.208c-0.088,0.472-0.128,0.944-0.128,1.424
				c0,7.928-6.76,14.376-15.072,14.376L216,135.04v-14.048c0-8.2,5.288-16.992,13.168-16.992h22.736
				c7.696,0,14.232,6.824,14.552,15.04L266.424,119.208z"/>
			<circle cx="120" cy="144" r="8"/>
			<circle cx="88" cy="144" r="8"/>
			<circle cx="392" cy="144" r="8"/>
			<circle cx="360" cy="144" r="8"/>
		</g>
	</g>
</g>
<g>
</g>
<g>
</g>
<g>
</g>
<g>
</g>
<g>
</g>
<g>
</g>
<g>
</g>
<g>
</g>
<g>
</g>
<g>
</g>
<g>
</g>
<g>
</g>
<g>
</g>
<g>
</g>
<g>
</g>
</svg>
