<svg height="512pt" viewBox="0 0 512 512.00036" width="512pt" xmlns="http://www.w3.org/2000/svg"><path d="m368.46875 112.476562h-65.335938v-97.46875c0-14.136718-17.871093-20.417968-26.710937-9.367187l-128.535156 160.664063c-7.847657 9.8125-.832031 24.371093 11.714843 24.371093h65.332032v89.433594c0 13.816406 17.394531 20.445313 26.472656 9.660156l128.535156-152.632812c8.203125-9.742188 1.25-24.660157-11.472656-24.660157zm-113.535156 126.53125v-63.332031c0-8.285156-6.714844-15-15-15h-49.125l82.324218-102.90625v69.707031c0 8.285157 6.71875 15 15 15h48.09375zm0 0"/><path d="m496.984375 112.46875c-21.167969 0-41.066406 8.242188-56.03125 23.210938-14.757813 14.746093-23.21875 35.171874-23.21875 56.039062v42.003906c-17.296875 17.296875-81.453125 81.457032-116.679687 116.675782-18.003907 18.007812-27.921876 41.945312-27.921876 67.410156v79.191406c0 8.285156 6.714844 15 15 15h112.46875c8.28125 0 15-6.714844 15-15v-41.988281l92.003907-92.003907c2.8125-2.8125 4.394531-6.628906 4.394531-10.605468v-224.933594c0-8.285156-6.730469-15-15.015625-15zm-14.984375 233.71875-92.003906 92.007812c-2.816406 2.8125-4.394532 6.628907-4.394532 10.605469v33.199219h-82.46875v-64.191406c0-17.453125 6.796876-33.855469 19.136719-46.195313 26.210938-26.207031 68.441407-68.441406 95.464844-95.464843v53.972656l-43.808594 43.808594c-5.859375 5.855468-5.859375 15.355468 0 21.210937 2.929688 2.929687 6.769531 4.394531 10.605469 4.394531 3.839844 0 7.679688-1.464844 10.605469-4.394531l48.203125-48.199219c2.8125-2.8125 4.390625-6.628906 4.390625-10.605468v-144.617188c0-12.964844 5.257812-25.65625 14.429687-34.820312 5.652344-5.652344 12.433594-9.761719 19.839844-12.117188zm0 0"/><path d="m94.265625 233.722656v-42.003906c0-21.179688-8.242187-41.082031-23.207031-56.035156-14.96875-14.972656-34.871094-23.214844-56.058594-23.214844-8.285156 0-15 6.714844-15 15v224.929688c0 3.980468 1.582031 7.796874 4.394531 10.609374l92.003907 92.003907v41.988281c0 8.285156 6.71875 15 15 15h112.46875c8.285156 0 15-6.714844 15-15v-79.191406c0-25.46875-9.914063-49.410156-27.917969-67.410156-35.222657-35.21875-99.386719-99.378907-116.683594-116.675782zm114.601563 248.277344h-82.46875v-33.199219c0-3.980469-1.578126-7.792969-4.390626-10.605469l-92.007812-92.007812v-201.410156c7.40625 2.355468 14.191406 6.464844 19.847656 12.121094 9.164063 9.15625 14.417969 21.847656 14.417969 34.816406v144.617187c0 3.980469 1.582031 7.792969 4.394531 10.605469l48.199219 48.199219c2.929687 2.929687 6.769531 4.394531 10.605469 4.394531 3.839844 0 7.679687-1.464844 10.605468-4.394531 5.859376-5.855469 5.859376-15.351563 0-21.210938l-43.804687-43.804687v-53.976563c27.027344 27.027344 69.261719 69.257813 95.472656 95.464844 12.335938 12.335937 19.128907 28.742187 19.128907 46.199219zm0 0"/></svg>