<svg height="480pt" viewBox="0 0 480 480" width="480pt" xmlns="http://www.w3.org/2000/svg"><path d="m296 200v-24c4.417969 0 8-3.582031 8-8 0-35.347656-28.652344-64-64-64s-64 28.652344-64 64c0 4.417969 3.582031 8 8 8v24c0 30.929688 25.070312 56 56 56s56-25.070312 56-56zm-56-80c22.867188.03125 42.550781 16.160156 47.070312 38.574219-9.820312-3.8125-18.3125-10.421875-24.414062-19.015625-1.328125-1.992188-3.480469-3.28125-5.863281-3.519532-.265625-.015624-.535157-.015624-.800781 0-2.121094 0-4.15625.84375-5.65625 2.34375-8.734376 8.707032-36.558594 16.175782-57.375 20.015626 4.589843-22.332032 24.238281-38.371094 47.039062-38.398438zm0 120c-22.082031-.027344-39.972656-17.917969-40-40l-.054688-26.640625c19.097657-3.109375 37.574219-9.273437 54.71875-18.253906 6.929688 7.855469 15.605469 13.972656 25.335938 17.855469v27.039062c-.027344 22.082031-17.917969 39.972656-40 40zm0 0"/><path d="m472 384h-120v-56c-.046875-39.746094-32.253906-71.953125-72-72h-80c-39.746094.046875-71.953125 32.253906-72 72v56h-120c-4.417969 0-8 3.582031-8 8v32c0 4.417969 3.582031 8 8 8h16v40c0 4.417969 3.582031 8 8 8h416c4.417969 0 8-3.582031 8-8v-40h16c4.417969 0 8-3.582031 8-8v-32c0-4.417969-3.582031-8-8-8zm-136-56v56h-24v-56h-16v56h-48v-62.558594l38.679688 6.445313c.4375.078125.878906.117187 1.320312.113281 2.320312 0 4.527344-1.007812 6.046875-2.757812 1.519531-1.753907 2.203125-4.082032 1.875-6.378907l-6.578125-46.015625c26.914062 4.554688 46.625 27.855469 46.65625 55.152344zm-57.464844-17.6875-23.457031-3.914062 19.546875-23.453126zm-15.613281-38.3125-22.921875 27.503906-22.921875-27.503906zm-57.546875 10.945312 19.546875 23.453126-23.457031 3.914062zm-61.375 45.054688c.03125-27.296875 19.742188-50.597656 46.65625-55.152344l-6.578125 46.015625c-.328125 2.296875.355469 4.625 1.875 6.378907 1.519531 1.75 3.726563 2.757812 6.046875 2.757812.441406.003906.882812-.035156 1.320312-.113281l38.679688-6.445313v62.558594h-48v-56h-16v56h-24zm296 136h-400v-32h400zm24-48h-448v-16h448zm0 0"/><path d="m464 0h-192c-8.835938 0-16 7.164062-16 16v64c0 8.835938 7.164062 16 16 16h48v24c0 3.234375 1.949219 6.152344 4.9375 7.390625s6.429688.550781 8.71875-1.734375l29.65625-29.65625h100.6875c8.835938 0 16-7.164062 16-16v-64c0-8.835938-7.164062-16-16-16zm0 80h-104c-2.121094 0-4.15625.84375-5.65625 2.34375l-18.34375 18.34375v-12.6875c0-4.417969-3.582031-8-8-8h-56v-64h192zm0 0"/><path d="m304 40h32v16h-32zm0 0"/><path d="m352 40h32v16h-32zm0 0"/><path d="m400 40h32v16h-32zm0 0"/><path d="m32 64h80v16h-80zm0 0"/><path d="m32 96h80v16h-80zm0 0"/><path d="m16 144h84.6875l29.65625 29.65625c2.289062 2.285156 5.730469 2.972656 8.71875 1.734375s4.9375-4.15625 4.9375-7.390625v-120c0-8.835938-7.164062-16-16-16h-112c-8.835938 0-16 7.164062-16 16v80c0 8.835938 7.164062 16 16 16zm0-96h112v100.6875l-18.34375-18.34375c-1.5-1.5-3.535156-2.34375-5.65625-2.34375h-88zm0 0"/></svg>