<svg height="512pt" viewBox="0 -43 512 511" width="512pt" xmlns="http://www.w3.org/2000/svg"><path d="m502.738281 153.460938-57.164062-75.335938c-6.355469-8.296875-18.070313-14.089844-28.488281-14.089844h-77.851563v-38.199218c0-13.972657-11.351563-25.335938-25.304687-25.335938h-257.679688c-31.015625 0-56.25 25.273438-56.25 56.34375v297.613281c0 9.628907 7.828125 17.460938 17.453125 17.460938h48.070313c6.847656 30.625 34.203124 53.582031 66.8125 53.582031 32.609374 0 59.964843-22.957031 66.8125-53.582031h111.734374c6.847657 30.625 34.207032 53.582031 66.8125 53.582031 32.605469 0 59.960938-22.957031 66.808594-53.582031h50.042969c9.625 0 17.453125-7.832031 17.453125-17.460938v-173.378906c0-8.921875-3.890625-20.53125-9.261719-27.617187zm-163.503906-59.425782 77.796875-.003906c1.230469.074219 3.921875 1.414062 4.742188 2.359375l57.0625 75.195313c.734374.972656 1.539062 2.773437 2.152343 4.636718h-141.753906zm-206.898437 301.464844c-21.207032 0-38.460938-17.308594-38.460938-38.582031 0-21.273438 17.253906-38.582031 38.460938-38.582031 21.207031 0 38.460937 17.308593 38.460937 38.582031 0 21.273437-17.253906 38.582031-38.460937 38.582031zm245.359374 0c-21.207031 0-38.460937-17.308594-38.460937-38.582031 0-21.273438 17.253906-38.582031 38.460937-38.582031 21.207032 0 38.457032 17.308593 38.457032 38.582031 0 21.273437-17.25 38.582031-38.457032 38.582031zm104.304688-53.582031h-37.496094c-6.847656-30.628907-34.203125-53.582031-66.808594-53.582031-32.605468 0-59.964843 22.953124-66.8125 53.582031h-111.738281c-6.84375-30.628907-34.203125-53.582031-66.808593-53.582031-32.609376 0-59.964844 22.953124-66.8125 53.582031h-35.523438v-285.074219c0-14.527344 11.773438-26.34375 26.25-26.34375h252.984375v160.722656c0 8.285156 6.714844 15 15 15h157.765625zm0 0"/><path d="m233.714844 77.378906c-2.019532-.097656-20.324219-.828125-42.0625 2.332032-30.304688 4.40625-53.109375 14.09375-67.773438 28.792968-12.976562 13.007813-20.121094 30.3125-20.121094 48.734375 0 13.3125 3.734376 26.042969 10.699219 36.988281l-26.023437 26.085938c-5.851563 5.863281-5.839844 15.363281.023437 21.214844 2.929688 2.917968 6.761719 4.378906 10.59375 4.378906 3.84375 0 7.6875-1.46875 10.621094-4.402344l25.984375-26.046875c10.917969 6.964844 23.613281 10.695313 36.894531 10.695313 18.402344 0 35.6875-7.167969 48.671875-20.179688 33.640625-33.71875 31.410156-102.261718 31.042969-110.035156-.472656-10.09375-8.4375-18.074219-18.550781-18.558594zm-33.730469 107.402344c-11.488281 11.515625-28.3125 14.175781-42.1875 8.480469l37.371094-37.457031c14.003906-14.035157-7.210938-35.25-21.234375-21.1875l-37.304688 37.390624c-5.652344-13.882812-3.050781-30.746093 8.488282-42.3125 17.226562-17.269531 53.839843-22.132812 77.28125-22.484374-.425782 21.726562-4.824219 59.941406-22.414063 77.570312zm0 0"/></svg>