<svg height="388pt" viewBox="-13 0 388 388.97792" width="388pt" xmlns="http://www.w3.org/2000/svg"><path d="m94.765625 226.261719c4.332031 0 8.566406-1.3125 12.210937-3.839844l98.761719-68.367187c9.519531-6.59375 12.132813-19.433594 5.953125-29.226563-3.09375-4.894531-7.90625-8.285156-13.558594-9.535156-5.640624-1.261719-11.453124-.222657-16.328124 2.914062l-101.011719 64.984375c-4.902344 3.152344-8.25 8.027344-9.433594 13.730469-1.1875 5.699219-.0625 11.507813 3.160156 16.339844l2.257813 3.390625c3.234375 4.851562 8.167968 8.125 13.894531 9.21875 1.367187.261718 2.734375.390625 4.09375.390625zm-6.621094-17.171875-2.257812-3.398438c-1.1875-1.773437-1.601563-3.898437-1.160157-5.984375.433594-2.09375 1.660157-3.878906 3.449219-5.035156l101.015625-64.984375c1.292969-.828125 2.761719-1.253906 4.261719-1.253906.570313 0 1.152344.058594 1.726563.1875 2.066406.457031 3.832031 1.703125 4.964843 3.496094 2.265625 3.589843 1.308594 8.296874-2.179687 10.710937l-98.757813 68.367187c-1.761719 1.222657-3.878906 1.660157-5.972656 1.265626-2.101563-.402344-3.910156-1.597657-5.089844-3.371094zm0 0"/><path d="m361.832031 253.648438c0-29.1875-41.496093-86.203126-54.613281-103.5v-52.96875c0-13.28125-8.828125-24.414063-20.878906-28.179688v-24.085938c0-13.550781-11.027344-24.574218-24.574219-24.574218h-40c-13.546875 0-24.574219 11.023437-24.574219 24.574218v22.609376h-3.925781c-5.933594 0-11.667969 1.75-16.582031 5.070312l-126.269532 85.15625c-14.457031 9.75-23.085937 25.984375-23.085937 43.417969v142.628906c0 24.914063 20.265625 45.179687 45.179687 45.179687h189.53125c24.914063 0 45.183594-20.265624 45.183594-45.179687v-27.386719c30.804688-4.320312 54.609375-30.78125 54.609375-62.761718zm-150.984375-208.734376c0-6.019531 4.898438-10.921874 10.917969-10.921874h40c6.019531 0 10.917969 4.902343 10.917969 10.921874v22.609376h-61.835938zm51.191406 330.410157h-189.535156c-17.386718 0-31.527344-14.144531-31.527344-31.527344v-142.628906c0-12.890625 6.382813-24.890625 17.074219-32.101563l126.273438-85.160156c2.648437-1.785156 5.738281-2.734375 8.941406-2.734375h84.300781c8.816406 0 16 7.183594 16 16.003906v48.035157c-.171875.171874-.410156.242187-.5625.433593-5.945312 7.613281-58.066406 75.328125-58.066406 108.003907 0 33.359374 25.894531 60.726562 58.628906 63.207031v26.945312c0 17.378907-14.140625 31.523438-31.527344 31.523438zm36.347657-71.878907c-27.453125 0-49.792969-22.339843-49.792969-49.796874 0-21.296876 32.132812-68.828126 49.792969-92.535157 17.667969 23.703125 49.792969 71.222657 49.792969 92.535157 0 27.457031-22.34375 49.796874-49.792969 49.796874zm0 0"/><path d="m86.757812 98.644531c13.6875 0 24.828126-11.136719 24.828126-24.828125 0-11.402344-14.886719-31.355468-19.449219-37.199218-2.585938-3.3125-8.171875-3.3125-10.757813 0-4.5625 5.84375-19.449218 25.796874-19.449218 37.199218.003906 13.691406 11.140624 24.828125 24.828124 24.828125zm0-46.28125c6.035157 8.730469 11.175782 17.9375 11.175782 21.453125 0 6.160156-5.015625 11.175782-11.175782 11.175782-6.15625 0-11.171874-5.015626-11.171874-11.175782 0-3.507812 5.136718-12.71875 11.171874-21.453125zm0 0"/><path d="m50.144531 39.683594c0-11.402344-14.886719-31.355469-19.449219-37.199219-2.585937-3.3125-8.171874-3.3125-10.757812 0-4.5625 5.84375-19.449219 25.796875-19.449219 37.199219 0 13.691406 11.140625 24.828125 24.828125 24.828125s24.828125-11.136719 24.828125-24.828125zm-24.824219 11.175781c-6.160156 0-11.175781-5.015625-11.175781-11.175781 0-3.507813 5.140625-12.71875 11.175781-21.457032 6.03125 8.734376 11.171876 17.941407 11.171876 21.457032 0 6.164062-5.011719 11.175781-11.171876 11.175781zm0 0"/><path d="m327.699219 242.203125c-3.773438 0-6.828125 3.058594-6.828125 6.828125 0 13.171875-10.71875 23.894531-23.894532 23.894531-3.773437 0-6.824218 3.054688-6.824218 6.824219s3.050781 6.828125 6.824218 6.828125c20.703126 0 37.546876-16.84375 37.546876-37.546875 0-3.769531-3.050782-6.828125-6.824219-6.828125zm0 0"/><path d="m238.953125 327.539062h-143.363281c-3.773438 0-6.824219 3.054688-6.824219 6.824219s3.050781 6.828125 6.824219 6.828125h143.363281c3.773437 0 6.824219-3.058594 6.824219-6.828125s-3.050782-6.824219-6.824219-6.824219zm0 0"/></svg>