<svg height="511pt" viewBox="0 0 511 511.99976" width="511pt" xmlns="http://www.w3.org/2000/svg"><path d="m510.359375 371.164062c-6.003906-18.925781-25.636719-35.902343-54.566406-28.453124l-135.597657 34.921874c.226563-1.847656.34375-3.71875.34375-5.613281 0-24.808593-20.183593-44.992187-44.996093-44.992187h-156.953125c-.710938 0-1.402344.0625-2.085938.160156v-16.03125c0-8.285156-6.714844-15-14.996094-15h-86.011718c-8.28125 0-14.996094 6.714844-14.996094 15 0 8.28125 6.714844 14.996094 14.996094 14.996094h71.011718v155.851562h-71.011718c-8.28125 0-14.996094 6.714844-14.996094 14.996094 0 8.285156 6.714844 15 14.996094 15h86.011718c8.28125 0 14.996094-6.714844 14.996094-15v-.996094h158.539063c29.132812 0 31.6875-.96875 34.390625-1.996094l170.945312-64.800781c28.363282-10.75 36.550782-37.335937 29.980469-58.042969zm-40.613281 29.996094-169.636719 64.304688c-3.015625.277344-11.625.542968-25.066406.542968h-158.539063v-109.148437c.683594.097656 1.375.164063 2.085938.164063h156.953125c8.269531 0 15 6.726562 15 14.996093 0 8.410157-6.808594 14.996094-15.5 14.996094h-79.433594c-8.28125 0-14.996094 6.714844-14.996094 15 0 8.28125 6.714844 14.996094 14.996094 14.996094 0 0 81.414063.011719 82.300781.023437 4.6875.058594 9.121094.113282 15.375-1.496094l169.992188-43.78125c13.1875-3.394531 17.328125 4.796876 18.496094 8.472657 2.136718 6.742187.269531 16.265625-12.027344 20.929687zm0 0"/><path d="m256.503906 156.429688h42.945313v110.605468c0 6.324219 3.96875 11.96875 9.917969 14.109375 1.660156.601563 3.375.886719 5.074218.886719 4.390625 0 8.65625-1.925781 11.5625-5.441406l104.523438-126.433594c3.703125-4.476562 4.484375-10.6875 2.011718-15.945312-2.472656-5.253907-7.761718-8.609376-13.570312-8.609376h-42.945312v-110.601562c0-6.328125-3.96875-11.972656-9.917969-14.113281-5.953125-2.140625-12.609375-.320313-16.636719 4.554687l-104.523438 126.433594c-3.703124 4.480469-4.484374 10.691406-2.011718 15.945312 2.472656 5.257813 7.761718 8.609376 13.570312 8.609376zm89.523438-99.75v83.921874c0 8.28125 6.714844 14.996094 15 14.996094h26.085937l-57.667969 69.757813v-83.921875c0-8.285156-6.714843-15-15-15h-26.085937zm0 0"/></svg>